<?xml version="1.0" standalone="no"?>
<!DOCTYPE svg PUBLIC "-//W3C//DTD SVG 20010904//EN"
 "http://www.w3.org/TR/2001/REC-SVG-20010904/DTD/svg10.dtd">
<svg version="1.0" xmlns="http://www.w3.org/2000/svg"
 width="800.000000pt" height="800.000000pt" viewBox="0 0 800.000000 800.000000"
 preserveAspectRatio="xMidYMid meet">
<metadata>
Created by potrace 1.14, written by Peter Selinger 2001-2017
</metadata>
<g transform="translate(0.000000,800.000000) scale(0.100000,-0.100000)"
fill="#000000" stroke="none">
<path d="M288 7995 c-3 -4 -12 -7 -20 -9 -24 -3 -65 -49 -77 -85 -8 -25 -10
-360 -9 -1245 l3 -1211 23 -33 c45 -62 28 -60 719 -60 345 0 633 3 638 7 6 3
21 7 35 9 81 11 247 87 319 146 43 35 115 109 143 146 42 56 95 170 119 255
25 91 27 110 28 225 2 79 0 101 -15 172 -3 15 -5 29 -4 30 4 7 -55 156 -77
197 -56 100 -94 145 -187 223 l-29 24 50 50 c74 74 142 207 161 314 3 19 6 89
5 155 0 100 -5 134 -26 205 -49 158 -149 292 -284 377 -41 26 -78 48 -82 49
-3 0 -19 6 -36 13 -103 45 -101 44 -760 48 -347 2 -633 1 -637 -2z m1187 -340
c169 -37 251 -105 292 -245 21 -70 23 -209 6 -279 -25 -93 -68 -147 -150 -182
-63 -27 -92 -30 -323 -35 -269 -6 -283 -8 -315 -45 -14 -17 -26 -45 -27 -62 0
-18 -2 -45 -2 -62 -3 -49 24 -105 58 -122 25 -14 70 -17 236 -19 262 -2 310
-7 397 -39 164 -59 237 -197 228 -425 -6 -155 -52 -271 -140 -348 -47 -41
-135 -88 -182 -97 -16 -3 -39 -7 -53 -10 -34 -8 -956 -9 -968 -1 -6 3 -10 388
-10 996 l0 991 447 -2 c325 -1 462 -5 506 -14z"/>
<path d="M3387 7194 c-1 -1 -27 -5 -57 -8 -30 -4 -73 -11 -95 -16 -22 -6 -49
-13 -60 -15 -11 -3 -29 -9 -40 -14 -11 -5 -50 -21 -87 -36 -37 -15 -72 -33
-79 -41 -6 -8 -17 -14 -24 -14 -15 0 -146 -110 -189 -157 -41 -47 -116 -154
-116 -166 0 -6 -6 -18 -14 -26 -13 -16 -59 -142 -71 -196 -4 -16 -9 -39 -12
-50 -2 -11 -6 -70 -8 -130 -17 -428 203 -781 575 -925 71 -27 104 -36 155 -45
11 -2 40 -6 65 -11 51 -8 300 -13 314 -5 6 2 24 5 41 7 18 1 47 5 66 9 19 5
43 9 54 10 33 5 190 58 196 68 3 5 9 8 13 7 11 -2 108 57 139 84 54 50 58 112
12 192 -42 72 -89 79 -190 30 -82 -40 -164 -73 -197 -80 -13 -3 -33 -7 -44
-10 -66 -14 -110 -19 -208 -20 -340 -7 -619 203 -640 481 l-4 52 574 -1 c315
0 588 3 606 7 42 9 117 47 144 73 30 29 62 82 69 117 22 107 24 176 9 255 -12
59 -20 82 -50 145 -41 86 -64 116 -160 211 -56 55 -95 82 -176 122 -56 28
-112 53 -123 55 -11 1 -24 5 -30 9 -22 13 -165 31 -258 32 -54 1 -99 1 -100 0z
m243 -313 c140 -36 270 -131 319 -234 25 -52 36 -143 23 -192 -17 -62 -17 -62
-574 -63 -326 0 -505 4 -509 10 -14 22 18 176 41 198 3 3 11 17 18 31 59 114
250 232 412 254 25 4 46 8 48 9 7 7 183 -3 222 -13z"/>
<path d="M4743 7179 c-49 -14 -74 -57 -77 -136 -2 -38 1 -82 5 -99 11 -38 47
-76 80 -82 13 -3 241 -5 506 -6 266 -1 482 -4 480 -7 -2 -7 -148 -168 -207
-229 -19 -20 -73 -78 -120 -129 -47 -52 -101 -110 -120 -131 -19 -20 -78 -84
-130 -140 -52 -57 -106 -115 -120 -130 -79 -85 -211 -229 -231 -251 -13 -14
-64 -69 -114 -123 -104 -112 -116 -132 -118 -189 -2 -85 27 -136 94 -164 18
-8 253 -11 776 -11 713 0 751 0 792 18 54 25 70 61 67 155 -4 101 -32 147 -98
159 -13 3 -265 5 -561 5 l-538 1 20 26 c11 15 60 69 108 122 49 52 109 118
134 146 26 28 59 65 74 81 15 17 56 62 91 101 36 40 82 90 102 111 53 57 202
220 221 242 9 10 51 56 93 102 42 46 90 98 105 115 15 17 63 69 105 116 42 46
81 95 86 109 5 13 8 50 7 82 -4 75 -36 120 -97 135 -53 13 -1368 14 -1415 1z"/>
<path d="M5548 3802 c-35 -4 -88 -58 -89 -91 0 -14 -1 -224 -1 -467 -1 -487
-2 -477 63 -505 44 -18 903 -18 947 0 67 28 66 17 66 515 1 395 -1 454 -15
486 -28 63 -32 63 -513 64 -237 1 -443 0 -458 -2z m827 -266 l34 -34 -96 -94
c-53 -51 -133 -129 -178 -173 -45 -44 -128 -124 -183 -178 l-101 -99 -130 130
c-72 71 -131 133 -131 139 0 5 15 24 34 42 l33 32 97 -96 97 -96 72 70 c341
331 403 390 410 391 4 0 23 -15 42 -34z"/>
<path d="M7230 3799 c-91 -12 -112 -18 -188 -56 -88 -43 -176 -126 -223 -208
-19 -33 -34 -62 -34 -65 -1 -3 -9 -29 -19 -58 -27 -81 -26 -218 4 -307 30 -91
87 -181 153 -240 53 -47 174 -112 224 -121 16 -2 34 -7 42 -10 14 -5 149 -5
186 -1 11 2 26 6 33 11 6 4 12 4 12 0 0 -3 7 -1 15 6 8 7 15 10 15 7 0 -10 71
23 124 57 67 43 166 147 166 174 0 6 3 12 8 12 10 0 38 73 58 149 11 46 15 88
11 145 -7 96 -5 89 -40 179 -5 16 -27 54 -48 85 -78 120 -180 193 -316 227
-77 19 -117 22 -183 14z m185 -125 c28 -9 57 -22 65 -28 8 -7 28 -18 44 -26
38 -20 112 -104 142 -161 40 -79 56 -194 39 -269 -3 -14 -8 -36 -11 -49 -17
-84 -113 -201 -202 -249 -132 -70 -265 -74 -397 -12 -150 71 -246 229 -240
395 3 81 10 109 45 180 60 124 184 216 315 232 22 3 41 6 43 8 8 7 114 -7 157
-21z"/>
<path d="M7217 3524 c-205 -53 -271 -309 -116 -455 23 -21 48 -39 55 -39 8 0
14 -5 14 -10 0 -6 3 -9 8 -8 4 1 25 -3 47 -7 119 -26 239 30 298 140 17 31 22
57 22 120 0 83 -14 123 -56 168 -10 12 -19 24 -19 28 0 14 -124 68 -165 72
-22 2 -62 -2 -88 -9z"/>
<path d="M310 3392 c-19 -11 -44 -31 -55 -46 -20 -27 -20 -39 -22 -1247 -3
-1342 -7 -1252 56 -1306 27 -24 39 -26 128 -26 56 0 117 25 127 52 4 9 11 30
16 46 6 19 10 397 10 1000 1 842 3 967 15 950 8 -11 19 -25 25 -32 5 -7 10
-16 10 -22 0 -5 3 -11 8 -13 4 -1 54 -73 111 -158 58 -85 107 -157 110 -160 3
-3 11 -13 16 -22 6 -10 73 -110 150 -223 77 -113 145 -213 150 -222 6 -10 15
-22 20 -29 6 -6 54 -78 109 -158 121 -180 145 -201 235 -201 78 0 113 20 163
93 17 26 35 49 40 50 4 2 8 8 8 14 0 6 15 31 34 57 18 25 77 111 130 191 53
80 103 154 112 165 27 36 161 232 165 242 9 21 301 444 305 440 2 -2 4 -442 4
-978 0 -904 2 -977 18 -1009 29 -58 61 -74 150 -74 66 0 83 3 110 23 71 50 66
-48 66 1296 0 1154 -1 1212 -18 1245 -23 43 -34 53 -71 68 -48 18 -194 12
-232 -10 -29 -18 -83 -78 -83 -93 0 -4 -10 -20 -22 -35 -13 -15 -29 -36 -36
-46 -7 -10 -112 -163 -234 -339 -121 -176 -239 -347 -262 -380 -22 -33 -44
-64 -49 -70 -4 -5 -48 -68 -97 -140 -49 -71 -93 -135 -98 -141 -5 -5 -15 -20
-21 -33 -12 -22 -19 -31 -67 -89 l-20 -25 -30 47 c-16 25 -32 46 -36 46 -5 0
-8 7 -8 15 0 8 -4 15 -10 15 -5 0 -10 5 -10 11 0 6 -13 28 -30 49 -16 21 -30
42 -30 48 0 6 -4 12 -8 14 -5 2 -28 32 -52 68 -24 36 -47 67 -52 68 -4 2 -8
10 -8 17 0 7 -3 15 -7 17 -10 4 -93 124 -93 133 0 3 -6 13 -14 20 -7 7 -48 64
-90 127 -95 139 -171 249 -301 437 -55 78 -111 159 -124 180 -52 78 -90 96
-206 100 -52 1 -79 -3 -105 -17z"/>
<path d="M3381 2612 c-34 -5 -123 -63 -149 -97 -27 -34 -28 -83 -4 -133 21
-42 160 -260 179 -280 6 -6 15 -21 18 -32 3 -11 11 -20 16 -20 5 0 9 -5 9 -10
0 -6 30 -57 68 -113 37 -57 73 -112 80 -122 7 -11 21 -33 32 -50 10 -16 22
-35 27 -40 4 -6 15 -22 23 -36 16 -28 196 -306 301 -464 44 -67 63 -105 58
-115 -11 -23 -43 -94 -44 -100 -1 -3 -16 -36 -33 -74 -18 -38 -32 -70 -32 -72
0 -1 -14 -33 -32 -71 -18 -37 -33 -70 -33 -73 -3 -9 -22 -53 -50 -115 -83
-179 -135 -300 -135 -310 0 -7 -6 -18 -14 -24 -31 -26 -42 -141 -16 -174 25
-32 122 -77 178 -83 41 -5 50 -2 76 22 16 15 44 61 63 103 19 42 43 95 54 118
10 23 19 44 19 46 0 3 23 53 50 111 28 58 50 108 50 111 0 2 14 35 32 72 17
38 32 70 33 73 0 3 8 21 17 40 8 19 23 51 31 70 9 19 32 71 52 115 35 75 50
111 54 127 1 4 18 39 37 78 19 39 34 72 34 75 0 2 15 36 34 77 18 40 46 102
61 138 15 35 40 92 55 125 68 145 84 180 85 185 1 3 9 22 18 44 9 21 17 42 17
47 0 5 5 9 10 9 6 0 10 6 10 14 0 14 19 58 91 214 16 34 29 64 29 66 0 2 9 24
20 50 12 25 20 49 20 52 -1 4 2 10 7 13 19 13 104 227 108 268 4 56 -26 94
-101 128 -77 35 -131 34 -171 -5 -25 -25 -103 -164 -103 -185 0 -2 -14 -35
-31 -72 -30 -65 -108 -239 -191 -428 -22 -49 -44 -96 -50 -102 -6 -7 -8 -13
-4 -13 4 0 -1 -15 -11 -32 -9 -18 -18 -35 -18 -38 -9 -32 -105 -235 -114 -238
-5 -2 -12 6 -16 18 -3 11 -17 32 -29 48 -13 15 -25 32 -26 37 -1 6 -21 39 -45
75 -102 159 -135 211 -135 216 0 3 -9 14 -20 26 -11 12 -20 28 -20 35 0 7 -4
13 -10 13 -5 0 -10 4 -10 10 0 5 -28 54 -63 107 -157 242 -177 274 -177 281 0
5 -8 17 -17 28 -10 10 -24 31 -32 46 -8 15 -22 36 -31 46 -10 10 -20 27 -24
38 -9 30 -78 93 -112 102 -16 4 -40 6 -53 4z"/>
<path d="M5828 2604 c-2 -2 -22 -6 -44 -10 -210 -32 -389 -172 -440 -343 -34
-115 -22 -281 28 -368 36 -64 127 -145 208 -185 79 -39 214 -86 295 -103 6 -2
60 -17 120 -35 261 -76 357 -161 349 -307 -5 -83 -61 -148 -164 -189 -158 -64
-331 -48 -530 51 -47 23 -105 55 -129 71 -88 58 -96 63 -122 63 -30 1 -104
-64 -119 -105 -34 -89 29 -192 168 -271 62 -36 160 -77 215 -89 127 -30 180
-37 282 -38 44 0 107 3 140 7 52 6 74 9 130 21 61 13 205 78 244 110 76 65 94
82 119 120 28 41 60 113 68 151 10 50 13 73 14 115 2 66 -7 141 -20 175 -6 17
-12 32 -13 35 -5 23 -23 60 -29 60 -4 0 -8 6 -8 13 0 18 -78 98 -130 133 -89
60 -221 111 -400 154 -199 48 -327 98 -379 148 -64 61 -63 168 1 246 28 35 89
73 129 82 11 2 29 7 42 10 70 18 226 5 292 -25 11 -5 43 -19 70 -32 28 -12 84
-44 126 -70 85 -55 114 -57 162 -11 65 62 87 136 54 186 -51 77 -259 188 -412
219 -60 13 -307 21 -317 11z"/>
<path d="M7163 2585 c-18 -8 -42 -29 -53 -47 -20 -32 -20 -46 -17 -863 2 -780
3 -832 20 -856 22 -33 63 -51 125 -55 98 -6 169 31 177 92 2 16 4 29 5 29 7 0
3 1561 -3 1600 -9 51 -26 78 -62 98 -30 16 -155 17 -192 2z"/>
</g>
</svg>
