<?xml version="1.0" encoding="UTF-8" standalone="no"?><!-- Generator: Gravit.io --><svg xmlns="http://www.w3.org/2000/svg" xmlns:xlink="http://www.w3.org/1999/xlink" style="isolation:isolate" viewBox="0 0 50 50" width="50pt" height="50pt"><defs><clipPath id="_clipPath_xFUiTKgejIc2u8XOmkmpWFsE6pAY6Ew3"><rect width="50" height="50"/></clipPath></defs><g clip-path="url(#_clipPath_xFUiTKgejIc2u8XOmkmpWFsE6pAY6Ew3)"><clipPath id="_clipPath_fCT1RPLqutY3Sy4OTHSwNE8it6pWDA4s"><rect x="0" y="0" width="50" height="50" transform="matrix(1,0,0,1,0,0)" fill="rgb(255,255,255)"/></clipPath><g clip-path="url(#_clipPath_fCT1RPLqutY3Sy4OTHSwNE8it6pWDA4s)"><g><rect x="0" y="0" width="50" height="50" transform="matrix(1,0,0,1,0,0)" fill="none"/><path d=" M 36.938 4.422 C 36.938 7.516 36.215 8.882 35.281 9.641 C 34.348 10.398 32.926 10.637 31.313 10.859 C 29.699 11.082 27.898 11.289 26.406 12.484 C 25.168 13.476 24.313 15.117 24.063 17.578 L 4 17.578 C 1.8 17.578 0 19.378 0 21.578 L 0 41.578 C 0 43.778 1.8 45.578 4 45.578 L 46 45.578 C 48.2 45.578 50 43.778 50 41.578 L 50 21.578 C 50 19.378 48.2 17.578 46 17.578 L 26.094 17.578 C 26.309 15.64 26.91 14.644 27.656 14.047 C 28.586 13.301 29.976 13.082 31.594 12.859 C 33.211 12.637 35.039 12.418 36.531 11.203 C 38.023 9.988 38.938 7.848 38.938 4.422 L 36.938 4.422 Z  M 4 19.578 L 46 19.578 C 47.117 19.578 48 20.461 48 21.578 L 48 41.578 C 48 42.695 47.117 43.578 46 43.578 L 4 43.578 C 2.883 43.578 2 42.695 2 41.578 L 2 21.578 C 2 20.461 2.883 19.578 4 19.578 Z  M 5 23.578 L 5 27.578 L 9 27.578 L 9 23.578 L 5 23.578 Z  M 11 23.578 L 11 27.578 L 15 27.578 L 15 23.578 L 11 23.578 Z  M 17 23.578 L 17 27.578 L 21 27.578 L 21 23.578 L 17 23.578 Z  M 23 23.578 L 23 27.578 L 27 27.578 L 27 23.578 L 23 23.578 Z  M 29 23.578 L 29 27.578 L 33 27.578 L 33 23.578 L 29 23.578 Z  M 35 23.578 L 35 27.578 L 39 27.578 L 39 23.578 L 35 23.578 Z  M 41 23.578 L 41 27.578 L 45 27.578 L 45 23.578 L 41 23.578 Z  M 5 29.578 L 5 33.578 L 12 33.578 L 12 29.578 L 5 29.578 Z  M 14 29.578 L 14 33.578 L 18 33.578 L 18 29.578 L 14 29.578 Z  M 20 29.578 L 20 33.578 L 24 33.578 L 24 29.578 L 20 29.578 Z  M 26 29.578 L 26 33.578 L 30 33.578 L 30 29.578 L 26 29.578 Z  M 32 29.578 L 32 33.578 L 36 33.578 L 36 29.578 L 32 29.578 Z  M 38 29.578 L 38 33.578 L 45 33.578 L 45 29.578 L 38 29.578 Z  M 5 35.578 L 5 39.578 L 9 39.578 L 9 35.578 L 5 35.578 Z  M 11 35.578 L 11 39.578 L 15 39.578 L 15 35.578 L 11 35.578 Z  M 17 35.578 L 17 39.578 L 33 39.578 L 33 35.578 L 17 35.578 Z  M 35 35.578 L 35 39.578 L 39 39.578 L 39 35.578 L 35 35.578 Z  M 41 35.578 L 41 39.578 L 45 39.578 L 45 35.578 L 41 35.578 Z " fill="rgb(0,0,0)"/></g></g></g></svg>