<?xml version="1.0" encoding="UTF-8" standalone="no"?><!-- Generator: Gravit.io --><svg xmlns="http://www.w3.org/2000/svg" xmlns:xlink="http://www.w3.org/1999/xlink" style="isolation:isolate" viewBox="0 0 1842.52 510.236" width="1842.52pt" height="510.236pt"><defs><clipPath id="_clipPath_8wnxSWvff7uxYFB6Ej0TNBCkJoNeDq9N"><rect width="1842.52" height="510.236"/></clipPath></defs><g clip-path="url(#_clipPath_8wnxSWvff7uxYFB6Ej0TNBCkJoNeDq9N)"><rect width="1842.52" height="510.236" style="fill:rgb(0,0,0)" fill-opacity="0"/><g><path d=" M 1693.551 4.912 L 1833.981 4.912 L 1833.981 145.259 L 1693.551 145.259 L 1693.551 4.912 Z " fill="none"/></g><g><path d=" M 1771.611 35.433 C 1752.041 35.433 1736.157 51.307 1736.157 70.866 C 1736.157 90.425 1752.041 106.299 1771.611 106.299 C 1791.182 106.299 1807.066 90.425 1807.066 70.866 C 1807.066 51.307 1791.182 35.433 1771.611 35.433 Z  M 1771.611 0 C 1732.47 0 1700.703 31.748 1700.703 70.866 C 1700.703 109.984 1732.47 141.732 1771.611 141.732 C 1810.753 141.732 1842.52 109.984 1842.52 70.866 C 1842.52 31.748 1810.753 0 1771.611 0 Z  M 1771.611 127.559 C 1740.27 127.559 1714.885 102.189 1714.885 70.866 C 1714.885 39.543 1740.27 14.173 1771.611 14.173 C 1802.953 14.173 1828.338 39.543 1828.338 70.866 C 1828.338 102.189 1802.953 127.559 1771.611 127.559 Z " fill="rgb(0,72,195)"/><path d=" M 1658.647 0 L 1545.194 0 C 1537.38 0 1531.013 6.364 1531.013 14.173 L 1531.013 127.559 C 1531.013 135.368 1537.38 141.732 1545.194 141.732 L 1658.647 141.732 C 1666.461 141.732 1672.829 135.368 1672.829 127.559 L 1672.829 14.173 C 1672.829 6.364 1666.461 0 1658.647 0 Z  M 1582.776 111.26 L 1547.321 75.827 L 1557.249 65.906 L 1582.776 91.403 L 1646.593 29.757 L 1656.52 39.699 L 1582.776 111.26 Z " fill="rgb(20,151,0)"/></g><g><g><path d=" M 164.97 410.648 L 21.302 410.648 L 21.302 410.648 Q 12.385 410.648 7.679 407.43 L 7.679 407.43 L 7.679 407.43 Q 2.972 404.211 1.486 398.023 L 1.486 398.023 L 1.486 398.023 Q 0 391.834 0 384.407 L 0 384.407 L 0 90.31 L 0 90.31 Q 0 82.884 1.734 77.19 L 1.734 77.19 L 1.734 77.19 Q 3.468 71.496 8.174 68.278 L 8.174 68.278 L 8.174 68.278 Q 12.881 65.06 21.798 65.06 L 21.798 65.06 L 160.016 65.06 L 160.016 65.06 Q 187.759 65.06 208.814 77.437 L 208.814 77.437 L 208.814 77.437 Q 229.868 89.815 241.758 111.105 L 241.758 111.105 L 241.758 111.105 Q 253.648 132.395 253.153 157.646 L 253.153 157.646 L 253.153 157.646 Q 253.648 170.518 250.18 182.896 L 250.18 182.896 L 250.18 182.896 Q 246.712 195.274 240.024 205.919 L 240.024 205.919 L 240.024 205.919 Q 233.336 216.564 223.428 223.496 L 223.428 223.496 L 223.428 223.496 Q 236.804 231.912 246.217 245.28 L 246.217 245.28 L 246.217 245.28 Q 255.63 258.648 260.584 274.987 L 260.584 274.987 L 260.584 274.987 Q 265.538 291.326 265.538 309.15 L 265.538 309.15 L 265.538 309.15 Q 265.042 330.44 257.611 349.006 L 257.611 349.006 L 257.611 349.006 Q 250.18 367.573 236.309 381.436 L 236.309 381.436 L 236.309 381.436 Q 222.437 395.299 204.107 402.974 L 204.107 402.974 L 204.107 402.974 Q 185.777 410.648 164.97 410.648 L 164.97 410.648 Z  M 44.587 108.134 L 44.587 368.068 L 160.016 368.068 L 160.016 368.068 Q 179.337 368.068 193.208 360.642 L 193.208 360.642 L 193.208 360.642 Q 207.08 353.215 214.511 338.857 L 214.511 338.857 L 214.511 338.857 Q 221.942 324.498 221.942 303.704 L 221.942 303.704 L 221.942 303.704 Q 221.942 285.88 216.988 274.987 L 216.988 274.987 L 216.988 274.987 Q 212.034 264.095 203.612 258.401 L 203.612 258.401 L 203.612 258.401 Q 195.19 252.707 185.53 250.232 L 185.53 250.232 L 185.53 250.232 Q 175.869 247.756 166.704 247.508 L 166.704 247.508 L 166.704 247.508 Q 157.539 247.261 150.108 247.261 L 150.108 247.261 L 119.888 247.261 L 119.888 247.261 Q 109.98 247.261 105.521 242.31 L 105.521 242.31 L 105.521 242.31 Q 101.063 237.359 101.063 226.466 L 101.063 226.466 L 101.063 226.466 Q 101.063 216.069 105.769 211.613 L 105.769 211.613 L 105.769 211.613 Q 110.476 207.157 120.384 207.157 L 120.384 207.157 L 150.603 207.157 L 150.603 207.157 Q 158.53 207.157 168.438 206.662 L 168.438 206.662 L 168.438 206.662 Q 178.346 206.167 188.007 202.701 L 188.007 202.701 L 188.007 202.701 Q 197.667 199.235 203.86 189.58 L 203.86 189.58 L 203.86 189.58 Q 210.052 179.926 210.052 162.102 L 210.052 162.102 L 210.052 162.102 Q 210.052 134.375 195.19 121.255 L 195.19 121.255 L 195.19 121.255 Q 180.328 108.134 146.145 108.134 L 146.145 108.134 L 44.587 108.134 Z  M 432.49 413.123 L 432.49 413.123 L 432.49 413.123 Q 402.765 413.123 379.481 403.221 L 379.481 403.221 L 379.481 403.221 Q 356.197 393.319 340.096 376.238 L 340.096 376.238 L 340.096 376.238 Q 323.996 359.156 315.574 336.876 L 315.574 336.876 L 315.574 336.876 Q 307.152 314.596 307.152 288.85 L 307.152 288.85 L 307.152 288.85 Q 307.152 254.688 323.005 227.952 L 323.005 227.952 L 323.005 227.952 Q 338.858 201.215 366.848 185.619 L 366.848 185.619 L 366.848 185.619 Q 394.839 170.023 431.003 170.023 L 431.003 170.023 L 431.003 170.023 Q 455.774 170.023 475.342 177.698 L 475.342 177.698 L 475.342 177.698 Q 494.911 185.372 508.782 198.245 L 508.782 198.245 L 508.782 198.245 Q 522.653 211.118 530.084 226.961 L 530.084 226.961 L 530.084 226.961 Q 537.516 242.805 537.516 258.648 L 537.516 258.648 L 537.516 258.648 Q 537.516 283.899 525.626 294.049 L 525.626 294.049 L 525.626 294.049 Q 513.736 304.199 496.397 304.199 L 496.397 304.199 L 353.225 304.199 L 353.225 304.199 Q 352.729 325.984 364.867 341.58 L 364.867 341.58 L 364.867 341.58 Q 377.004 357.176 395.582 365.593 L 395.582 365.593 L 395.582 365.593 Q 414.159 374.01 432.985 374.01 L 432.985 374.01 L 432.985 374.01 Q 446.856 374.01 456.764 372.524 L 456.764 372.524 L 456.764 372.524 Q 466.673 371.039 474.104 368.563 L 474.104 368.563 L 474.104 368.563 Q 481.535 366.088 486.984 363.612 L 486.984 363.612 L 486.984 363.612 Q 492.434 361.137 496.645 358.661 L 496.645 358.661 L 496.645 358.661 Q 500.856 356.186 504.819 355.195 L 504.819 355.195 L 504.819 355.195 Q 509.277 354.205 513.488 355.938 L 513.488 355.938 L 513.488 355.938 Q 517.699 357.671 520.176 362.622 L 520.176 362.622 L 520.176 362.622 Q 523.149 366.583 524.14 370.049 L 524.14 370.049 L 524.14 370.049 Q 525.13 373.515 525.13 377.475 L 525.13 377.475 L 525.13 377.475 Q 525.13 384.407 513.241 392.824 L 513.241 392.824 L 513.241 392.824 Q 501.351 401.241 480.296 407.182 L 480.296 407.182 L 480.296 407.182 Q 459.241 413.123 432.49 413.123 Z  M 353.225 274.987 L 353.225 274.987 L 477.571 274.987 L 477.571 274.987 Q 486.984 274.987 491.691 272.512 L 491.691 272.512 L 491.691 272.512 Q 496.397 270.036 496.397 259.144 L 496.397 259.144 L 496.397 259.144 Q 496.397 245.28 487.975 234.14 L 487.975 234.14 L 487.975 234.14 Q 479.553 223 464.939 216.069 L 464.939 216.069 L 464.939 216.069 Q 450.324 209.137 431.499 209.137 L 431.499 209.137 L 431.499 209.137 Q 409.701 209.137 391.619 217.802 L 391.619 217.802 L 391.619 217.802 Q 373.536 226.466 363.133 241.32 L 363.133 241.32 L 363.133 241.32 Q 352.729 256.173 353.225 274.987 Z  M 778.283 410.648 L 595.974 410.648 L 595.974 410.648 Q 585.57 410.648 579.873 405.202 L 579.873 405.202 L 579.873 405.202 Q 574.176 399.755 574.176 389.358 L 574.176 389.358 L 574.176 389.358 Q 574.176 383.912 575.91 379.703 L 575.91 379.703 L 575.91 379.703 Q 577.643 375.495 581.607 372.029 L 581.607 372.029 L 727.256 214.583 L 607.863 214.583 L 607.863 214.583 Q 600.928 214.583 595.974 213.346 L 595.974 213.346 L 595.974 213.346 Q 591.019 212.108 588.295 207.157 L 588.295 207.157 L 588.295 207.157 Q 585.57 202.206 585.57 192.799 L 585.57 192.799 L 585.57 192.799 Q 585.57 182.896 588.295 178.193 L 588.295 178.193 L 588.295 178.193 Q 591.019 173.489 595.974 172.251 L 595.974 172.251 L 595.974 172.251 Q 600.928 171.014 607.863 171.014 L 607.863 171.014 L 772.338 171.014 L 772.338 171.014 Q 783.237 171.014 788.686 176.46 L 788.686 176.46 L 788.686 176.46 Q 794.136 181.906 794.136 191.808 L 794.136 191.808 L 794.136 191.808 Q 794.136 196.759 792.65 200.72 L 792.65 200.72 L 792.65 200.72 Q 791.163 204.681 788.686 207.157 L 788.686 207.157 L 643.037 366.583 L 778.778 366.583 L 778.778 366.583 Q 785.714 366.583 790.668 368.316 L 790.668 368.316 L 790.668 368.316 Q 795.622 370.049 798.099 374.752 L 798.099 374.752 L 798.099 374.752 Q 800.576 379.456 800.576 389.358 L 800.576 389.358 L 800.576 389.358 Q 800.576 398.765 797.851 403.469 L 797.851 403.469 L 797.851 403.469 Q 795.127 408.172 790.173 409.41 L 790.173 409.41 L 790.173 409.41 Q 785.219 410.648 778.283 410.648 L 778.283 410.648 Z  M 875.383 410.648 L 875.383 410.648 L 875.383 410.648 Q 866.465 410.648 861.759 407.677 L 861.759 407.677 L 861.759 407.677 Q 857.053 404.707 855.071 399.508 L 855.071 399.508 L 855.071 399.508 Q 853.089 394.309 853.089 387.873 L 853.089 387.873 L 853.089 86.845 L 853.089 86.845 Q 853.089 80.408 855.071 75.704 L 855.071 75.704 L 855.071 75.704 Q 857.053 71.001 862.007 68.03 L 862.007 68.03 L 862.007 68.03 Q 866.961 65.06 876.373 65.06 L 876.373 65.06 L 876.373 65.06 Q 883.804 65.06 888.263 66.05 L 888.263 66.05 L 888.263 66.05 Q 892.722 67.04 895.446 68.773 L 895.446 68.773 L 895.446 68.773 Q 898.171 70.506 901.144 73.972 L 901.144 73.972 L 1030.445 261.124 L 1015.087 261.124 L 1145.874 72.486 L 1145.874 72.486 Q 1148.847 69.02 1151.819 67.535 L 1151.819 67.535 L 1151.819 67.535 Q 1154.792 66.05 1159.498 65.555 L 1159.498 65.555 L 1159.498 65.555 Q 1164.204 65.06 1170.645 65.06 L 1170.645 65.06 L 1170.645 65.06 Q 1180.057 65.06 1184.764 68.03 L 1184.764 68.03 L 1184.764 68.03 Q 1189.47 71.001 1191.452 76.2 L 1191.452 76.2 L 1191.452 76.2 Q 1193.433 81.398 1193.433 87.835 L 1193.433 87.835 L 1193.433 388.863 L 1193.433 388.863 Q 1193.433 394.804 1191.452 399.755 L 1191.452 399.755 L 1191.452 399.755 Q 1189.47 404.707 1184.516 407.677 L 1184.516 407.677 L 1184.516 407.677 Q 1179.562 410.648 1170.149 410.648 L 1170.149 410.648 L 1170.149 410.648 Q 1161.232 410.648 1156.525 407.677 L 1156.525 407.677 L 1156.525 407.677 Q 1151.819 404.707 1150.085 399.508 L 1150.085 399.508 L 1150.085 399.508 Q 1148.351 394.309 1148.351 387.873 L 1148.351 387.873 L 1148.351 139.326 L 1042.334 295.287 L 1042.334 295.287 Q 1040.848 297.762 1038.371 299.99 L 1038.371 299.99 L 1038.371 299.99 Q 1035.894 302.218 1032.179 303.704 L 1032.179 303.704 L 1032.179 303.704 Q 1028.463 305.189 1023.014 305.189 L 1023.014 305.189 L 1023.014 305.189 Q 1017.069 305.189 1013.849 303.704 L 1013.849 303.704 L 1013.849 303.704 Q 1010.628 302.218 1008.151 299.99 L 1008.151 299.99 L 1008.151 299.99 Q 1005.674 297.762 1003.197 294.792 L 1003.197 294.792 L 897.676 139.822 L 897.676 388.863 L 897.676 388.863 Q 897.676 394.804 895.942 399.755 L 895.942 399.755 L 895.942 399.755 Q 894.208 404.707 889.502 407.677 L 889.502 407.677 L 889.502 407.677 Q 884.795 410.648 875.383 410.648 Z  M 1311.835 506.7 L 1311.835 506.7 L 1311.835 506.7 Q 1299.946 501.749 1297.964 495.312 L 1297.964 495.312 L 1297.964 495.312 Q 1295.982 488.876 1301.432 477.488 L 1301.432 477.488 L 1432.714 182.896 L 1432.714 182.896 Q 1438.164 171.509 1444.356 168.786 L 1444.356 168.786 L 1444.356 168.786 Q 1450.549 166.062 1461.943 171.014 L 1461.943 171.014 L 1461.943 171.014 Q 1473.833 176.46 1475.567 182.896 L 1475.567 182.896 L 1475.567 182.896 Q 1477.301 189.333 1472.347 200.225 L 1472.347 200.225 L 1340.073 496.302 L 1340.073 496.302 Q 1335.119 507.69 1329.174 509.67 L 1329.174 509.67 L 1329.174 509.67 Q 1323.23 511.651 1311.835 506.7 Z  M 1381.192 331.925 L 1360.88 378.961 L 1247.432 204.186 L 1247.432 204.186 Q 1240.992 194.284 1242.478 187.6 L 1242.478 187.6 L 1242.478 187.6 Q 1243.965 180.916 1253.873 174.479 L 1253.873 174.479 L 1253.873 174.479 Q 1264.772 167.548 1271.46 169.281 L 1271.46 169.281 L 1271.46 169.281 Q 1278.148 171.014 1285.083 180.916 L 1285.083 180.916 L 1381.192 331.925 Z  M 1599.171 413.123 L 1599.171 413.123 L 1599.171 413.123 Q 1587.281 413.123 1574.401 410.648 L 1574.401 410.648 L 1574.401 410.648 Q 1561.52 408.172 1549.382 403.469 L 1549.382 403.469 L 1549.382 403.469 Q 1537.245 398.765 1528.08 392.329 L 1528.08 392.329 L 1528.08 392.329 Q 1518.915 385.892 1514.456 377.971 L 1514.456 377.971 L 1514.456 377.971 Q 1511.979 373.019 1511.484 368.811 L 1511.484 368.811 L 1511.484 368.811 Q 1510.989 364.602 1512.97 360.642 L 1512.97 360.642 L 1512.97 360.642 Q 1514.952 356.681 1518.915 352.72 L 1518.915 352.72 L 1518.915 352.72 Q 1523.869 346.778 1528.823 347.026 L 1528.823 347.026 L 1528.823 347.026 Q 1533.777 347.274 1541.208 353.71 L 1541.208 353.71 L 1541.208 353.71 Q 1546.658 357.176 1554.089 361.384 L 1554.089 361.384 L 1554.089 361.384 Q 1561.52 365.593 1569.446 368.811 L 1569.446 368.811 L 1569.446 368.811 Q 1577.373 372.029 1585.547 374.257 L 1585.547 374.257 L 1585.547 374.257 Q 1593.721 376.485 1601.648 376.485 L 1601.648 376.485 L 1601.648 376.485 Q 1624.437 376.485 1638.308 367.821 L 1638.308 367.821 L 1638.308 367.821 Q 1652.179 359.156 1652.179 344.798 L 1652.179 344.798 L 1652.179 344.798 Q 1652.179 336.381 1648.711 330.44 L 1648.711 330.44 L 1648.711 330.44 Q 1645.244 324.498 1639.299 320.29 L 1639.299 320.29 L 1639.299 320.29 Q 1633.354 316.081 1625.923 313.111 L 1625.923 313.111 L 1625.923 313.111 Q 1618.492 310.14 1609.327 307.417 L 1609.327 307.417 L 1609.327 307.417 Q 1600.162 304.694 1591.244 302.218 L 1591.244 302.218 L 1591.244 302.218 Q 1577.868 298.753 1564.988 294.297 L 1564.988 294.297 L 1564.988 294.297 Q 1552.107 289.841 1541.704 282.661 L 1541.704 282.661 L 1541.704 282.661 Q 1531.3 275.482 1524.86 264.342 L 1524.86 264.342 L 1524.86 264.342 Q 1518.42 253.202 1518.42 235.873 L 1518.42 235.873 L 1518.42 235.873 Q 1518.42 215.574 1528.823 200.72 L 1528.823 200.72 L 1528.823 200.72 Q 1539.227 185.867 1558.052 177.698 L 1558.052 177.698 L 1558.052 177.698 Q 1576.878 169.528 1602.143 169.528 L 1602.143 169.528 L 1602.143 169.528 Q 1613.042 169.528 1622.455 171.014 L 1622.455 171.014 L 1622.455 171.014 Q 1631.868 172.499 1640.537 175.717 L 1640.537 175.717 L 1640.537 175.717 Q 1649.207 178.935 1657.133 183.144 L 1657.133 183.144 L 1657.133 183.144 Q 1665.06 187.352 1672.491 193.294 L 1672.491 193.294 L 1672.491 193.294 Q 1681.408 199.235 1681.904 206.167 L 1681.904 206.167 L 1681.904 206.167 Q 1682.399 213.098 1676.454 220.525 L 1676.454 220.525 L 1676.454 220.525 Q 1671.995 226.961 1666.546 228.694 L 1666.546 228.694 L 1666.546 228.694 Q 1661.097 230.427 1655.647 225.971 L 1655.647 225.971 L 1655.647 225.971 Q 1647.721 220.03 1638.803 215.574 L 1638.803 215.574 L 1638.803 215.574 Q 1629.886 211.118 1620.473 208.147 L 1620.473 208.147 L 1620.473 208.147 Q 1611.061 205.176 1601.152 205.176 L 1601.152 205.176 L 1601.152 205.176 Q 1588.767 205.176 1579.107 208.89 L 1579.107 208.89 L 1579.107 208.89 Q 1569.446 212.603 1564.245 219.782 L 1564.245 219.782 L 1564.245 219.782 Q 1559.043 226.961 1559.043 235.873 L 1559.043 235.873 L 1559.043 235.873 Q 1559.043 243.795 1563.254 248.746 L 1563.254 248.746 L 1563.254 248.746 Q 1567.465 253.697 1574.153 257.163 L 1574.153 257.163 L 1574.153 257.163 Q 1580.841 260.629 1590.006 263.352 L 1590.006 263.352 L 1590.006 263.352 Q 1599.171 266.075 1609.079 268.551 L 1609.079 268.551 L 1609.079 268.551 Q 1623.446 272.017 1638.556 276.72 L 1638.556 276.72 L 1638.556 276.72 Q 1653.665 281.424 1665.803 289.098 L 1665.803 289.098 L 1665.803 289.098 Q 1677.94 296.772 1685.619 309.397 L 1685.619 309.397 L 1685.619 309.397 Q 1693.298 322.023 1693.298 342.818 L 1693.298 342.818 L 1693.298 342.818 Q 1693.298 375.495 1667.537 394.309 L 1667.537 394.309 L 1667.537 394.309 Q 1641.776 413.123 1599.171 413.123 Z  M 1771.077 410.648 L 1771.077 410.648 L 1771.077 410.648 Q 1761.664 410.648 1756.958 407.925 L 1756.958 407.925 L 1756.958 407.925 Q 1752.251 405.202 1750.765 400.251 L 1750.765 400.251 L 1750.765 400.251 Q 1749.279 395.299 1749.279 388.368 L 1749.279 388.368 L 1749.279 192.799 L 1749.279 192.799 Q 1749.279 185.867 1750.765 180.916 L 1750.765 180.916 L 1750.765 180.916 Q 1752.251 175.965 1756.958 173.489 L 1756.958 173.489 L 1756.958 173.489 Q 1761.664 171.014 1771.572 171.014 L 1771.572 171.014 L 1771.572 171.014 Q 1780.985 171.014 1785.443 173.737 L 1785.443 173.737 L 1785.443 173.737 Q 1789.902 176.46 1791.388 181.411 L 1791.388 181.411 L 1791.388 181.411 Q 1792.875 186.362 1792.875 193.789 L 1792.875 193.789 L 1792.875 388.863 L 1792.875 388.863 Q 1792.875 395.795 1791.388 400.746 L 1791.388 400.746 L 1791.388 400.746 Q 1789.902 405.697 1785.196 408.172 L 1785.196 408.172 L 1785.196 408.172 Q 1780.489 410.648 1771.077 410.648 Z " fill="rgb(0,0,0)"/></g></g></g></svg>