<?xml version="1.0" encoding="UTF-8" standalone="no"?><!-- Generator: Gravit.io --><svg xmlns="http://www.w3.org/2000/svg" xmlns:xlink="http://www.w3.org/1999/xlink" style="isolation:isolate" viewBox="0 0 50 50" width="50pt" height="50pt"><defs><clipPath id="_clipPath_vRxdTgyme0RbjBBpGl7MPUMXBAPS5JLh"><rect width="50" height="50"/></clipPath></defs><g clip-path="url(#_clipPath_vRxdTgyme0RbjBBpGl7MPUMXBAPS5JLh)"><clipPath id="_clipPath_DPeki0YC3Od43diK3kvSF8ebgwD4eSVh"><rect x="0" y="0" width="50" height="50" transform="matrix(1,0,0,1,0,0)" fill="rgb(255,255,255)"/></clipPath><g clip-path="url(#_clipPath_DPeki0YC3Od43diK3kvSF8ebgwD4eSVh)"><g><rect x="0" y="0" width="50" height="50" transform="matrix(1,0,0,1,0,0)" fill="none"/><path d=" M 4.511 35.206 C 2.294 30.456 1.803 25.083 3.123 20.01 C 2.256 19.47 1.618 18.631 1.329 17.651 C -0.749 23.736 -0.379 30.39 2.36 36.207 L 4.094 39.914 C 3.69 38.462 3.916 36.907 4.719 35.632 L 4.511 35.206 L 4.511 35.206 Z  M 48.46 18.226 C 48.114 18.97 47.568 19.584 46.884 20.01 C 48.153 24.917 47.796 30.269 45.497 35.206 L 45.299 35.622 C 46.082 36.861 46.339 38.397 45.943 39.864 L 47.648 36.207 C 50.377 30.387 50.746 23.737 48.679 17.651 C 48.619 17.85 48.55 18.048 48.46 18.226 L 48.46 18.226 Z  M 7.524 34.779 L 7.494 34.71 L 7.484 34.71 C 5.402 35.682 4.501 38.158 5.472 40.241 L 8.248 46.188 C 8.71 47.192 9.556 47.967 10.597 48.339 C 11.637 48.716 12.777 48.666 13.778 48.2 L 13.788 48.2 L 12.411 45.256 L 7.524 34.779 L 7.524 34.779 Z  M 12.381 32.509 C 12.035 31.776 11.299 31.305 10.488 31.3 C 9.775 31.303 9.112 31.669 8.729 32.27 C 8.346 32.872 8.296 33.626 8.594 34.274 L 14.829 47.635 C 15.067 48.141 15.483 48.527 16.009 48.716 C 16.534 48.904 17.099 48.884 17.604 48.646 C 18.11 48.408 18.497 47.992 18.685 47.467 C 18.873 46.941 18.853 46.376 18.615 45.871 L 12.381 32.509 L 12.381 32.509 Z  M 42.533 34.71 L 36.229 48.21 L 36.239 48.21 C 37.25 48.676 38.38 48.725 39.421 48.349 C 40.459 47.973 41.305 47.199 41.77 46.198 L 44.545 40.251 C 45.517 38.169 44.615 35.681 42.533 34.71 L 42.533 34.71 Z  M 40.412 31.498 C 40.124 31.37 39.827 31.3 39.53 31.3 C 38.747 31.3 37.993 31.746 37.637 32.509 L 31.402 45.871 C 30.916 46.912 31.372 48.16 32.413 48.646 C 32.918 48.884 33.483 48.904 34.009 48.716 C 34.534 48.527 34.95 48.141 35.188 47.635 L 41.423 34.274 C 41.899 33.233 41.453 31.984 40.412 31.498 L 40.412 31.498 Z  M 24.999 1.158 C 15.196 1.158 6.781 7.085 3.133 15.55 C 2.869 16.171 2.882 16.874 3.167 17.485 C 3.453 18.095 3.984 18.556 4.63 18.752 C 5.786 19.108 7.026 18.536 7.504 17.423 C 10.418 10.653 17.158 5.916 24.999 5.916 C 32.839 5.916 39.569 10.653 42.493 17.423 C 42.976 18.531 44.212 19.102 45.368 18.752 C 46.716 18.335 47.43 16.848 46.865 15.55 C 43.227 7.085 34.812 1.158 24.999 1.158 L 24.999 1.158 Z " fill="rgb(0,0,0)"/></g></g></g></svg>