<?xml version="1.0" encoding="UTF-8" standalone="no"?><!-- Generator: Gravit.io --><svg xmlns="http://www.w3.org/2000/svg" xmlns:xlink="http://www.w3.org/1999/xlink" style="isolation:isolate" viewBox="0 0 50 50" width="50pt" height="50pt"><defs><clipPath id="_clipPath_UstTur4SocM3mFMi5ZKnjmPRM2D3cQ36"><rect width="50" height="50"/></clipPath></defs><g clip-path="url(#_clipPath_UstTur4SocM3mFMi5ZKnjmPRM2D3cQ36)"><clipPath id="_clipPath_7kaQkOH3LjRty7cL84z9qHihvM5hqpqk"><rect x="0" y="0" width="50" height="50" transform="matrix(1,0,0,1,0,0)" fill="rgb(255,255,255)"/></clipPath><g clip-path="url(#_clipPath_7kaQkOH3LjRty7cL84z9qHihvM5hqpqk)"><g><rect x="0" y="0" width="50" height="50" transform="matrix(1,0,0,1,0,0)" fill="none"/><path d=" M 42.979 27.554 L 42.979 22.305 C 43.017 21.842 43.037 20.032 41.791 18.604 C 40.857 17.518 39.494 16.975 37.723 16.975 L 35.602 16.975 L 35.602 4.787 C 35.602 2.152 33.519 0 30.969 0 C 28.419 0 26.336 2.152 26.336 4.787 L 26.336 11.967 C 25.772 11.726 25.169 11.585 24.526 11.585 C 22.599 11.585 20.945 12.812 20.244 14.542 C 19.602 14.18 18.862 13.958 18.083 13.958 C 16.156 13.958 14.502 15.185 13.801 16.915 C 13.159 16.553 12.419 16.331 11.641 16.331 C 9.091 16.331 7.008 18.484 7.008 21.118 L 7.008 28.097 C 7.008 29.727 7.806 31.175 9.013 32.019 C 9.212 35.392 10.604 38.57 12.925 40.949 L 12.925 44.67 C 12.925 45.354 13.393 45.957 14.054 46.098 L 32.779 49.98 C 32.876 50 32.974 50 33.052 50 C 33.383 50 33.694 49.879 33.947 49.678 C 34.278 49.397 34.453 48.994 34.453 48.552 L 34.453 40.909 L 38.794 36.424 C 43.095 31.999 43.037 28.339 42.979 27.554 L 42.979 27.554 Z  M 29.159 4.787 C 29.159 3.761 29.976 2.916 30.969 2.916 C 31.962 2.916 32.779 3.761 32.779 4.787 L 32.779 16.975 L 29.159 16.975 L 29.159 4.787 L 29.159 4.787 Z  M 22.716 16.372 C 22.716 15.346 23.534 14.501 24.526 14.501 C 25.519 14.501 26.336 15.346 26.336 16.372 L 26.336 16.975 L 26.278 16.975 C 26.142 16.975 26.006 16.995 25.889 17.036 C 25.869 17.036 25.83 17.056 25.811 17.076 C 25.714 17.116 25.616 17.156 25.519 17.217 C 25.48 17.237 25.461 17.277 25.441 17.297 C 25.363 17.357 25.285 17.418 25.227 17.478 C 25.13 17.579 25.071 17.699 25.013 17.82 C 24.995 17.877 24.969 17.932 24.935 17.981 C 24.293 19.489 23.845 22.426 25.752 24.719 C 25.402 25.06 24.974 25.241 24.507 25.241 C 23.514 25.241 22.697 24.397 22.697 23.371 L 22.697 16.372 L 22.716 16.372 Z  M 16.273 18.745 C 16.273 17.719 17.091 16.875 18.083 16.875 C 19.076 16.875 19.894 17.719 19.894 18.745 L 19.894 23.834 C 19.894 25.503 19.718 26.428 19.446 26.951 C 19.115 27.353 18.628 27.615 18.083 27.615 C 17.091 27.615 16.273 26.77 16.273 25.744 L 16.273 18.745 L 16.273 18.745 Z  M 9.831 21.118 C 9.831 20.093 10.648 19.248 11.641 19.248 C 12.633 19.248 13.451 20.093 13.451 21.118 L 13.451 28.017 C 13.334 29.083 12.925 29.405 12.789 29.505 C 12.205 29.928 11.271 29.867 10.843 29.807 C 10.214 29.494 9.814 28.838 9.811 28.118 L 9.811 21.118 L 9.831 21.118 Z  M 36.808 34.373 L 32.059 39.28 C 31.795 39.551 31.647 39.921 31.65 40.306 L 31.65 46.782 L 15.728 43.484 L 15.728 40.306 C 15.728 39.863 15.534 39.441 15.203 39.159 C 15.164 39.139 12.536 36.927 11.933 32.844 C 13.665 32.723 15.125 31.657 15.826 30.109 C 16.468 30.33 17.246 30.491 18.083 30.491 C 19.835 30.491 21.062 29.847 21.801 28.52 C 21.996 28.238 22.19 27.937 22.327 27.595 C 22.93 27.896 23.631 28.097 24.487 28.097 C 24.604 28.097 24.799 28.097 25.071 28.077 C 21.645 32.06 22.268 37.229 22.288 37.47 C 22.327 37.832 22.638 38.093 22.989 38.093 L 23.086 38.093 C 23.475 38.033 23.748 37.671 23.689 37.269 C 23.689 37.208 22.891 30.712 28.127 27.253 C 28.302 27.152 28.4 26.971 28.439 26.79 L 29.957 26.529 C 32.351 27.032 34.648 27.273 34.745 27.293 L 34.901 27.293 C 35.621 27.293 36.224 26.73 36.302 25.986 C 36.38 25.181 35.816 24.477 35.057 24.397 C 35.037 24.397 32.643 24.135 30.288 23.632 L 28.419 23.23 C 27.134 22.164 27.154 20.736 27.349 19.851 L 37.723 19.851 C 38.638 19.851 39.3 20.073 39.689 20.495 C 40.234 21.098 40.176 22.044 40.176 22.044 L 40.176 27.575 C 40.176 27.615 40.176 27.695 40.195 27.756 C 40.176 27.916 40.39 30.652 36.808 34.373 L 36.808 34.373 Z " fill="rgb(44,34,39)"/></g></g></g></svg>