<svg id="Vrstva_1" data-name="Vrstva 1" xmlns="http://www.w3.org/2000/svg" viewBox="0 0 158.74 42.52"><defs><style>.cls-1{fill:#fbd54f;}.cls-2,.cls-3{fill:#003c73;}.cls-3{fill-rule:evenodd;}</style></defs><polygon class="cls-1" points="42.52 42.52 42.52 0 0 0 0 42.52 3.62 42.52 42.52 42.52"/><rect class="cls-2" x="45.35" width="113.39" height="42.52"/><path class="cls-1" d="M277.8,228.63a7.6,7.6,0,0,0,2.32,1.87,9.86,9.86,0,0,0,4.62,1.16c2.38,0,4.42-1.13,4.42-2.79,0-1.91-2.41-2.21-4.18-2.45-1.33-.17-2.65-.34-4-.61-1.46-.31-6.46-1.36-6.46-6.53,0-6.19,5.51-8,9.66-8,5.54,0,8.53,2.68,10.61,4.55L290.42,219A11.18,11.18,0,0,0,288,217a8.57,8.57,0,0,0-3.91-1.06c-2.38,0-3.57,1.36-3.57,2.52,0,1.83,2,2.11,3.06,2.24a46.72,46.72,0,0,1,7.34,1.43,5.94,5.94,0,0,1,4.15,5.88,8,8,0,0,1-1.9,5.1c-2.18,2.52-5.65,3.23-9,3.23-6.77,0-9.46-3.13-10.95-4.86Z" transform="translate(-219.59 -202.47)"/><path class="cls-1" d="M315.82,224.38c-.17,5-3.23,7.07-6.09,7.07s-6-2.11-6-7.82c0-4.35,2.31-7.55,6-7.55a5.85,5.85,0,0,1,4.22,1.77A9.37,9.37,0,0,1,315.82,224.38Zm1.46,9.62a13,13,0,0,0,4.55-10c0-1.63-.47-9.62-7.82-12.17a13.25,13.25,0,0,0-4.38-.71c-7.72,0-11.83,6.15-11.83,12.64,0,6.94,4.31,12.79,11.93,12.79A11.55,11.55,0,0,0,317.28,234Z" transform="translate(-219.59 -202.47)"/><path class="cls-1" d="M324.89,211.83h5.89l5.2,8.84c1.9,3.37,2.48,4.46,3.6,6.57l-.27-15.41h5.75v24h-5.89l-4.48-7.58a82.85,82.85,0,0,1-4.22-7.52l.17,15.1h-5.75Z" transform="translate(-219.59 -202.47)"/><path class="cls-1" d="M353,228.63a7.42,7.42,0,0,0,2.31,1.87,9.9,9.9,0,0,0,4.63,1.16c2.38,0,4.42-1.13,4.42-2.79,0-1.91-2.42-2.21-4.19-2.45-1.32-.17-2.65-.34-3.94-.61-1.46-.31-6.46-1.36-6.46-6.53,0-6.19,5.51-8,9.66-8,5.54,0,8.53,2.68,10.6,4.55L365.62,219a10.7,10.7,0,0,0-2.38-1.93,8.57,8.57,0,0,0-3.91-1.06c-2.38,0-3.57,1.36-3.57,2.52,0,1.83,2,2.11,3.06,2.24a46.88,46.88,0,0,1,7.35,1.43,6,6,0,0,1,4.15,5.88,8,8,0,0,1-1.91,5.1c-2.17,2.52-5.64,3.23-9,3.23-6.76,0-9.45-3.13-10.95-4.86Z" transform="translate(-219.59 -202.47)"/><path class="cls-3" d="M233,208a3.58,3.58,0,1,1,3.57,3.57A3.57,3.57,0,0,1,233,208Z" transform="translate(-219.59 -202.47)"/><path class="cls-3" d="M228,245h6.33l2.84-10.35L242.94,245h6.41l-8.76-15.84h0v-9l7.48,10.65,1.4-.84,10.69,15h1.91l-11.2-16-11.34-16-6.89-.76-5.42,8,5.21,10.17Zm3-24.56,2.29-3.21v7.5Z" transform="translate(-219.59 -202.47)"/></svg>